#!OML:ASF E:\Mandelcareful walks\Project 1\Capture day 1\Session 1\Subject1.ASF
:FULLY-SPECIFIED
:DEGREES
1114
root -20.2799 14.8219 -10.8947 31.808 73.979 15.1732
lowerback 29.6392 -0.277565 -0.507383
upperback 7.25355 -0.0996094 -1.42791
thorax -8.14645 0.184031 -1.3038
lowerneck -25.9343 11.3239 5.75089
upperneck 11.9776 17.2803 -18.0116
head 10.3269 6.54196 -4.21306
rclavicle 3.57812e-014 -1.33186e-014
rhumerus -22.8188 24.3959 -92.2419
rradius 34.5465
rwrist -58.222
rhand 8.40591 -44.2009
rfingers 7.12502
rthumb 33.6129 -71.0697
lclavicle 3.57812e-014 -1.33186e-014
lhumerus -176.678 -103.067 272.599
lradius 50.5645
lwrist 0.00655945
lhand -16.2105 -9.91335
lfingers 7.12502
lthumb 9.99707 19.8292
rfemur -42.9161 -0.871653 -0.47712
rtibia 57.5616
rfoot -27.7707 -5.40925
rtoes -13.5756
lfemur -53.9645 15.977 -16.6479
ltibia 59.5689
lfoot -16.2964 3.78119
ltoes -15.8688
1115
root -20.1422 14.8502 -11.0643 30.4896 73.3736 13.4796
lowerback 29.136 -0.100415 -0.778036
upperback 7.15866 0.0325869 -1.39332
thorax -8.00772 0.240382 -1.14945
lowerneck -25.6781 11.3018 5.56417
upperneck 11.6086 17.2089 -17.86
head 10.106 6.55632 -4.15215
rclavicle 1.5704e-014 -2.18663e-015
rhumerus -22.9754 23.8531 -92.2039
rradius 34.0139
rwrist -57.5385
rhand 8.55336 -44.2202
rfingers 7.12502
rthumb 33.753 -71.0584
lclavicle 1.5704e-014 -2.18663e-015
lhumerus -177.898 -104.106 274.125
lradius 49.7142
lwrist -2.77694
lhand -13.1035 -10.7053
lfingers 7.12502
lthumb 12.9934 18.87
rfemur -42.5463 -0.275231 -1.01757
rtibia 56.443
rfoot -27.1915 -5.88522
rtoes -14.5459
lfemur -54.1168 16.3902 -17.2005
ltibia 60.1727
lfoot -17.1788 3.70527
ltoes -15.4156
1116
root -20.0126 14.886 -11.229 29.5266 72.9872 12.4529
lowerback 29.1106 0.0100278 -0.841498
upperback 7.10706 0.1355 -1.50074
thorax -8.05187 0.286197 -1.26878
lowerneck -25.7227 11.2204 5.54137
upperneck 11.4954 17.0101 -17.5916
head 10.0117 6.49425 -4.09608
rclavicle -1.64991e-014 8.34896e-015
rhumerus -22.9993 22.8812 -92.2539
rradius 33.4835
rwrist -56.881
rhand 8.72494 -44.1843
rfingers 7.12502
rthumb 33.916 -70.9866
lclavicle -1.64991e-014 8.34896e-015
lhumerus -178.217 -102.188 274.264
lradius 49.6886
lwrist 1.72425
lhand -16.8941 -9.4474
lfingers 7.12502
lthumb 9.33757 20.3258
rfemur -41.7896 0.176989 -1.57251
rtibia 55.3739
rfoot -26.676 -6.29553
rtoes -15.2283
lfemur -53.9012 16.4079 -17.7119
ltibia 60.6441
lfoot -18.1957 3.80409
ltoes -15.5816
1117
root -19.8867 14.9041 -11.391 28.1019 72.5782 10.8786
lowerback 29.0423 0.141404 -1.25505
upperback 6.91585 0.183858 -1.2605
thorax -8.23477 0.30645 -0.778464
lowerneck -25.0727 11.278 5.50383
upperneck 11.1384 17.0638 -17.6627
head 9.78747 6.57086 -4.1216
rclavicle -3.58806e-014 -5.86415e-015
rhumerus -23.486 23.0051 -92.1168
rradius 33.2154
rwrist -56.8978
rhand 9.04953 -44.0174
rfingers 7.12502
rthumb 34.2243 -70.7511
lclavicle -3.58806e-014 -5.86415e-015
lhumerus -180.323 -102.604 276.708
lradius 49.2114
lwrist 2.09659
lhand -16.7043 -9.41255
lfingers 7.12502
lthumb 9.52063 20.3524
rfemur -41.0576 0.677649 -1.93752
rtibia 54.4021
rfoot -26.3096 -6.41675
rtoes -14.7168
lfemur -53.7624 16.4764 -18.021
ltibia 61.0279
lfoot -19.007 3.91126
ltoes -15.2705
1118
root -19.7628 14.9333 -11.552 26.8713 72.1763 9.3376
lowerback 28.67 0.236253 -1.17606
upperback 6.83426 0.309876 -1.32333
thorax -8.14477 0.35731 -0.933497
lowerneck -25.0828 11.2182 5.51776
upperneck 10.9654 16.8998 -17.4938
head 9.68784 6.52213 -4.09885
rclavicle 1.67973e-014 -9.24349e-015
rhumerus -23.6723 22.4529 -92.1671
rradius 32.9718
rwrist -56.8133
rhand 9.18999 -43.3893
rfingers 7.12502
rthumb 34.3577 -70.093
lclavicle 1.67973e-014 -9.24349e-015
lhumerus -181.447 -103.407 277.925
lradius 48.6275
lwrist -0.443533
lhand -13.8558 -10.0182
lfingers 7.12502
lthumb 12.2682 19.602
rfemur -40.7733 1.01542 -2.13511
rtibia 53.5977
rfoot -25.5136 -7.27206
rtoes -16.3797
lfemur -53.745 16.4716 -18.3361
ltibia 61.3176
lfoot -19.7213 4.04119
ltoes -14.0473
1119
root -19.6417 14.984 -11.7066 25.7995 71.6961 8.03366
lowerback 28.2922 0.419855 -0.925117
upperback 6.97831 0.59581 -1.62172
thorax -7.79056 0.488968 -1.50028
lowerneck -25.9726 11.0676 5.69944
upperneck 11.1352 16.5549 -17.1537
head 9.82774 6.34156 -4.0557
rclavicle -1.799e-014 6.08281e-014
rhumerus -23.2797 21.3435 -92.2808
rradius 32.7446
rwrist -56.5323
rhand 8.71023 -43.5122
rfingers 7.12502
rthumb 33.902 -70.3176
lclavicle -1.799e-014 6.08281e-014
lhumerus -180.555 -103.094 276.825
lradius 48.442
lwrist -1.73995
lhand -12 -10.5707
lfingers 7.12502
lthumb 14.057 18.9339
rfemur -40.7514 1.42664 -2.31756
rtibia 52.9342
rfoot -24.3618 -8.52478
rtoes -18.4222
lfemur -53.5207 16.3426 -18.6483
ltibia 61.4383
lfoot -20.4041 4.39496
ltoes -12.5575
1120
root -19.5229 15.0156 -11.8505 24.5648 71.1199 6.66591
lowerback 28.097 0.557532 -1.42328
upperback 6.83165 0.63395 -1.41644
thorax -7.86536 0.505662 -0.995145
lowerneck -25.3413 11.135 5.59685
upperneck 10.774 16.6468 -17.2212
head 9.60565 6.43086 -4.06159
rclavicle -1.04859e-014 -1.66979e-014
rhumerus -23.8263 22.2146 -92.3385
rradius 32.9072
rwrist -56.9195
rhand 8.36858 -42.9164
rfingers 7.12502
rthumb 33.5774 -69.7929
lclavicle -1.04859e-014 -1.66979e-014
lhumerus -182.475 -102.333 278.726
lradius 48.6193
lwrist 2.66748
lhand -15.8371 -9.69819
lfingers 7.12502
lthumb 10.3573 20.0267
rfemur -40.4062 1.92958 -2.4554
rtibia 52.4772
rfoot -23.6707 -8.84411
rtoes -16.4354
lfemur -53.2142 16.319 -18.8862
ltibia 61.4905
lfoot -21.041 4.85069
ltoes -11.5222
1121
root -19.401 15.0594 -11.9903 23.5113 70.6345 5.43021
lowerback 27.8377 0.624409 -1.86755
upperback 6.73269 0.609547 -1.15879
thorax -7.85495 0.494277 -0.440723
lowerneck -24.9307 11.2536 5.33524
upperneck 10.3886 16.8537 -17.2884
head 9.41359 6.55892 -4.01501
rclavicle 4.86557e-015 2.83423e-014
rhumerus -24.3281 23.0861 -92.2616
rradius 33.1615
rwrist -57.5174
rhand 8.51046 -42.3661
rfingers 7.12502
rthumb 33.7122 -69.2133
lclavicle 4.86557e-015 2.83423e-014
lhumerus -183.135 -103.516 279.744
lradius 48.1826
lwrist 1.12025
lhand -14.0421 -9.82231
lfingers 7.12502
lthumb 12.0885 19.8085
rfemur -40.6323 2.10348 -2.33656
rtibia 52.2014
rfoot -22.0134 -10.2189
rtoes -17.8897
lfemur -52.865 16.2764 -19.166
ltibia 61.3965
lfoot -21.6898 5.25102
ltoes -10.864
1122
root -19.2877 15.0925 -12.1169 22.775 70.3158 4.52845
lowerback 27.6055 0.689445 -1.70623
upperback 6.76776 0.721725 -1.35657
thorax -7.69827 0.542983 -0.785939
lowerneck -25.3903 11.1926 5.49976
upperneck 10.4364 16.6522 -17.0419
head 9.46575 6.46543 -3.9835
rclavicle 1.2921e-015 9.64106e-015
rhumerus -24.0243 22.0627 -92.4086
rradius 32.8785
rwrist -57.6117
rhand 9.22813 -42.7698
rfingers 7.12502
rthumb 34.3939 -69.4652
lclavicle 1.2921e-015 9.64106e-015
lhumerus -182.624 -103.572 279.046
lradius 48.0633
lwrist -1.01738
lhand -11.601 -10.0807
lfingers 7.12502
lthumb 14.4415 19.3969
rfemur -40.7236 2.03369 -2.14344
rtibia 52.0526
rfoot -20.9219 -11.267
rtoes -18.1308
lfemur -52.5325 16.151 -19.4367
ltibia 61.321
lfoot -22.2791 5.51304
ltoes -10.134
